<svg xmlns="http://www.w3.org/2000/svg" viewBox="0 0 1680 520" role="img" aria-labelledby="title description">
  <title id="title">CSG Connect app icon concept study</title>
  <desc id="description">Five vector directions for the CSG Connect app icon. Connected C is recommended.</desc>
  <rect width="1680" height="520" fill="#F4F1EA" />

  <g font-family="Manrope, Inter, system-ui, sans-serif" text-anchor="middle">
    <g transform="translate(48 56)">
      <rect width="280" height="280" rx="64" fill="#0B0D12" />
      <g transform="translate(35 35) scale(.41)">
        <path d="M354 116H204c-80 0-124 50-124 140s44 140 124 140h88l72 58v-58h-10" fill="none" stroke="#F0445B" stroke-width="58" stroke-linecap="round" stroke-linejoin="round" />
        <circle cx="374" cy="198" r="27" fill="#AAB799" />
        <circle cx="374" cy="314" r="27" fill="#AAB799" />
      </g>
      <rect y="300" width="280" height="34" rx="17" fill="#C51D34" />
      <text x="140" y="386" font-size="28" font-weight="750" fill="#0B0D12">Connected C</text>
      <text x="140" y="422" font-size="17" font-weight="600" letter-spacing="2" fill="#626B7F">RECOMMENDED</text>
    </g>

    <g transform="translate(374 56)">
      <rect width="280" height="280" rx="64" fill="#0B0D12" />
      <g transform="translate(50 48)">
        <path d="M18 56c0-22 18-40 40-40h112c22 0 40 18 40 40v66c0 22-18 40-40 40h-54l-42 36v-36H58c-22 0-40-18-40-40z" fill="none" stroke="#F0445B" stroke-width="24" stroke-linejoin="round" />
        <path d="M74 108h94c22 0 40 18 40 40v24c0 22-18 40-40 40h-22v28l-34-28H74" fill="none" stroke="#AAB799" stroke-width="20" stroke-linecap="round" stroke-linejoin="round" />
      </g>
      <text x="140" y="386" font-size="28" font-weight="750" fill="#0B0D12">Dialogue Loop</text>
      <text x="140" y="422" font-size="17" font-weight="600" letter-spacing="2" fill="#626B7F">CONVERSATION</text>
    </g>

    <g transform="translate(700 56)">
      <rect width="280" height="280" rx="64" fill="#0B0D12" />
      <g transform="translate(42 42)">
        <path d="M100 8 120 34l32-5 8 31 30 12-10 31 22 23-22 23 10 31-30 12-8 31-32-5-20 26-20-26-32 5-8-31-30-12 10-31-22-23 22-23-10-31 30-12 8-31 32 5z" fill="#AAB799" />
        <path d="M154 78h-48c-38 0-58 20-58 52s20 52 58 52h28l28 24v-24" fill="none" stroke="#0B0D12" stroke-width="25" stroke-linecap="round" stroke-linejoin="round" />
        <circle cx="160" cy="108" r="14" fill="#F0445B" />
        <circle cx="160" cy="154" r="14" fill="#F0445B" />
      </g>
      <text x="140" y="386" font-size="28" font-weight="750" fill="#0B0D12">Gear Chat</text>
      <text x="140" y="422" font-size="17" font-weight="600" letter-spacing="2" fill="#626B7F">CSG HERITAGE</text>
    </g>

    <g transform="translate(1026 56)">
      <rect width="280" height="280" rx="64" fill="#0B0D12" />
      <g transform="translate(42 48)">
        <path d="M26 38h144c25 0 46 21 46 46v69c0 25-21 46-46 46h-49l-49 39v-39H26c-25 0-46-21-46-46V84c0-25 21-46 46-46z" fill="none" stroke="#F0445B" stroke-width="22" stroke-linejoin="round" />
        <path d="m54 91-30 28 30 28M142 91l30 28-30 28" fill="none" stroke="#AAB799" stroke-width="18" stroke-linecap="round" stroke-linejoin="round" />
        <path d="m119 79-35 82" fill="none" stroke="#AAB799" stroke-width="18" stroke-linecap="round" />
      </g>
      <text x="140" y="386" font-size="28" font-weight="750" fill="#0B0D12">Code Dialogue</text>
      <text x="140" y="422" font-size="17" font-weight="600" letter-spacing="2" fill="#626B7F">LEARNING</text>
    </g>

    <g transform="translate(1352 56)">
      <rect width="280" height="280" rx="64" fill="#0B0D12" />
      <g transform="translate(42 42)">
        <path d="M26 28h148c25 0 46 21 46 46v78c0 25-21 46-46 46h-55l-49 40v-40H26c-25 0-46-21-46-46V74c0-25 21-46 46-46z" fill="none" stroke="#F0445B" stroke-width="22" stroke-linejoin="round" />
        <path d="M48 116h53M101 116l48-42M101 116l48 42" fill="none" stroke="#AAB799" stroke-width="15" stroke-linecap="round" />
        <circle cx="48" cy="116" r="22" fill="#AAB799" />
        <circle cx="149" cy="74" r="22" fill="#AAB799" />
        <circle cx="149" cy="158" r="22" fill="#AAB799" />
      </g>
      <text x="140" y="386" font-size="28" font-weight="750" fill="#0B0D12">Cohort Mesh</text>
      <text x="140" y="422" font-size="17" font-weight="600" letter-spacing="2" fill="#626B7F">COMMUNITY</text>
    </g>
  </g>
</svg>
